<svg id="Layer_1" data-name="Layer 1" xmlns="http://www.w3.org/2000/svg" width="19.02" height="19.21" viewBox="0 0 19.02 19.21">
  <defs>
    <style>
      .cls-1 {
        fill: #643203;
      }

      .cls-2 {
        fill: #d0874f;
      }

      .cls-3 {
        fill: #fcda8f;
      }

      .cls-4 {
        fill: #643102;
      }
    </style>
  </defs>
  <title>h_icon05</title>
  <g>
    <path class="cls-1" d="M-1688.55,374.27l.5.16a2.56,2.56,0,0,1,1.57,2.9c-.22,1.14-.43,2.28-.65,3.42,0,.15,0,.21.15.27a7.63,7.63,0,0,1,3.09,2.39,4.4,4.4,0,0,1,.87,2.67,14.56,14.56,0,0,1-.06,2,5,5,0,0,1-1.73,2.89,9.88,9.88,0,0,1-4.47,2.16,14.11,14.11,0,0,1-8.28-.55,8.39,8.39,0,0,1-3.19-2.09,4.86,4.86,0,0,1-1.21-2.28c0-.07,0-.15-.07-.19v-2.57s0-.05,0-.08a4.6,4.6,0,0,1,1-2.14,7.64,7.64,0,0,1,2.85-2.15c.19-.08.22-.17.18-.36-.22-1.13-.44-2.27-.64-3.4a2.51,2.51,0,0,1,1-2.53,3.27,3.27,0,0,1,1.11-.5h.82s0,0,0,0a2.5,2.5,0,0,1,2.11,2.63c0,.92,0,1.84,0,2.76,0,.17,0,.22.21.21a15.14,15.14,0,0,1,1.65,0c.18,0,.24,0,.24-.23,0-1,0-1.94,0-2.9a2.46,2.46,0,0,1,1.1-2.08,3.46,3.46,0,0,1,1-.43Zm4.75,12.09a4,4,0,0,0-1.41-3.28,7.41,7.41,0,0,0-2.64-1.58.21.21,0,0,1-.15-.28c.22-1.15.45-2.3.65-3.45a3.06,3.06,0,0,0,.12-1.31,1.71,1.71,0,0,0-1.37-1.38,1.68,1.68,0,0,0-1.72.58,1.78,1.78,0,0,0-.42,1.2c0,1.23,0,2.46,0,3.68,0,.1.06.25-.15.22a8.25,8.25,0,0,0-1.22-.09,17.88,17.88,0,0,0-1.94.06c-.32,0-.32,0-.32-.28,0-1.19,0-2.38,0-3.56a1.81,1.81,0,0,0-1.91-1.85,1.76,1.76,0,0,0-1.62,2c.22,1.4.51,2.79.78,4.19,0,.19,0,.26-.17.32a7.79,7.79,0,0,0-2.39,1.4,4,4,0,0,0-1.58,3.49,5.14,5.14,0,0,0,.27,2.3,5.39,5.39,0,0,0,2.29,2.43,11.69,11.69,0,0,0,5.57,1.55,13.19,13.19,0,0,0,3.43-.28,9.78,9.78,0,0,0,4-1.7,4.82,4.82,0,0,0,1.78-2.34A6.48,6.48,0,0,0-1683.8,386.36Z" transform="translate(1702.03 -374.27)"/>
    <path class="cls-2" d="M-1701.25,386.41a4,4,0,0,1,1.58-3.49,7.79,7.79,0,0,1,2.39-1.4c.16-.06.21-.13.17-.32-.27-1.4-.56-2.79-.78-4.19a1.76,1.76,0,0,1,1.62-2,1.81,1.81,0,0,1,1.91,1.85c0,1.18,0,2.37,0,3.56,0,.32,0,.31.32.28a17.88,17.88,0,0,1,1.94-.06,8.25,8.25,0,0,1,1.22.09c.21,0,.15-.12.15-.22,0-1.22,0-2.45,0-3.68a1.78,1.78,0,0,1,.42-1.2,1.68,1.68,0,0,1,1.72-.58,1.71,1.71,0,0,1,1.37,1.38,3.06,3.06,0,0,1-.12,1.31c-.2,1.15-.43,2.3-.65,3.45a.21.21,0,0,0,.15.28,7.41,7.41,0,0,1,2.64,1.58,4,4,0,0,1,1.41,3.28,4.45,4.45,0,0,1-.54,1.49,6.29,6.29,0,0,1-2.58,2.24,12.26,12.26,0,0,1-5.32,1.25,13.72,13.72,0,0,1-2.12-.13,10.64,10.64,0,0,1-4.18-1.34A5,5,0,0,1-1701.25,386.41Zm13-.67a1.94,1.94,0,0,0-.35-1.25.74.74,0,0,0-1.19-.07,2,2,0,0,0,0,2.39.72.72,0,0,0,1.11,0A1.61,1.61,0,0,0-1688.26,385.74Zm-8.64-.13a1.88,1.88,0,0,0,.34,1.11.72.72,0,0,0,1.18.09,1.92,1.92,0,0,0,.12-2.27.76.76,0,0,0-1.33,0A1.84,1.84,0,0,0-1696.9,385.61Z" transform="translate(1702.03 -374.27)"/>
    <path class="cls-3" d="M-1701.25,386.41a5,5,0,0,0,2.71,3.46,10.64,10.64,0,0,0,4.18,1.34,13.72,13.72,0,0,0,2.12.13,12.26,12.26,0,0,0,5.32-1.25,6.29,6.29,0,0,0,2.58-2.24,4.45,4.45,0,0,0,.54-1.49,6.48,6.48,0,0,1-.15,2,4.82,4.82,0,0,1-1.78,2.34,9.78,9.78,0,0,1-4,1.7,13.19,13.19,0,0,1-3.43.28,11.69,11.69,0,0,1-5.57-1.55,5.39,5.39,0,0,1-2.29-2.43A5.14,5.14,0,0,1-1701.25,386.41Z" transform="translate(1702.03 -374.27)"/>
    <path class="cls-4" d="M-1688.26,385.74a1.61,1.61,0,0,1-.43,1.08.72.72,0,0,1-1.11,0,2,2,0,0,1,0-2.39.74.74,0,0,1,1.19.07A1.94,1.94,0,0,1-1688.26,385.74Z" transform="translate(1702.03 -374.27)"/>
    <path class="cls-4" d="M-1696.9,385.61a1.84,1.84,0,0,1,.31-1.07.76.76,0,0,1,1.33,0,1.92,1.92,0,0,1-.12,2.27.72.72,0,0,1-1.18-.09A1.88,1.88,0,0,1-1696.9,385.61Z" transform="translate(1702.03 -374.27)"/>
  </g>
</svg>
