<svg id="Layer_1" data-name="Layer 1" xmlns="http://www.w3.org/2000/svg" xmlns:xlink="http://www.w3.org/1999/xlink" width="57.92" height="60" viewBox="0 0 57.92 60">
  <defs>
    <style>
      .cls-1 {
        fill: none;
      }

      .cls-2 {
        clip-path: url(#clip-path);
      }

      .cls-3, .cls-4 {
        fill: #fff;
      }

      .cls-3 {
        fill-rule: evenodd;
      }
    </style>
    <clipPath id="clip-path" transform="translate(2685.46 -354)">
      <rect class="cls-1" x="-2686.5" y="354" width="60" height="60"/>
    </clipPath>
  </defs>
  <title>icon01</title>
  <g class="cls-2">
    <g>
      <path class="cls-3" d="M-2646.7,400.78h-3.14l-1,3.11A13.12,13.12,0,0,0-2646.7,400.78Z" transform="translate(2685.46 -354)"/>
      <path class="cls-3" d="M-2651.51,379.84l-3.9,2.74v3.14l4.53,3.18,3-.88,1.39-4.52A13,13,0,0,0-2651.51,379.84Z" transform="translate(2685.46 -354)"/>
      <path class="cls-3" d="M-2662.79,391l-3-.87-3.84,2.88a13.09,13.09,0,0,0,1.72,5.58h5l1.84-2.4Z" transform="translate(2685.46 -354)"/>
      <path class="cls-3" d="M-2645.73,388.49l2.26,1.71a12.73,12.73,0,0,0-1.42-4.42Z" transform="translate(2685.46 -354)"/>
      <path class="cls-3" d="M-2650.21,391l-1.72,5.19,1.84,2.4h5a13.19,13.19,0,0,0,1.72-5.58l-3.85-2.88Z" transform="translate(2685.46 -354)"/>
      <path class="cls-3" d="M-2666.31,400.78a13.24,13.24,0,0,0,4.16,3.11l-1-3.11Z" transform="translate(2685.46 -354)"/>
      <path class="cls-4" d="M-2632.47,380.44a42.92,42.92,0,0,1-4.21-7.81c-2.5-6.67,1.3-10.52,3.79-12.22a1.07,1.07,0,0,0,.46-.74,1.09,1.09,0,0,0-.22-.85l-1.79-2.23a1.09,1.09,0,0,0-1.16-.37c-7.47,2.4-14.79.19-19.81-2.22v22.69A15.35,15.35,0,0,1-2641.14,392a5.43,5.43,0,0,1,0,.57,15.35,15.35,0,0,1-14.25,14.75V414c3.93-3.4,9.25-4.47,14-5.41l1.09-.22c.71-.15,1.39-.31,2-.49a14.68,14.68,0,0,0,8.33-5.8c3.13-4.61,3.23-11.29.24-17C-2630.54,383.5-2631.52,381.94-2632.47,380.44Zm-14.71-6a5,5,0,0,1-4.93-4.94v-4.39a5,5,0,0,1,4.93-4.94,5,5,0,0,1,4.89,4.23,1.1,1.1,0,0,1-.39,1.05,1.07,1.07,0,0,1-1.11.16,1.08,1.08,0,0,1-.67-.89,2.77,2.77,0,0,0-2.72-2.35,2.74,2.74,0,0,0-2.74,2.74v4.39a2.76,2.76,0,0,0,2.74,2.74,2.74,2.74,0,0,0,2.71-2.35,1.1,1.1,0,0,1,1.24-.92,1.1,1.1,0,0,1,.94,1.23A5,5,0,0,1-2647.18,374.44Z" transform="translate(2685.46 -354)"/>
      <path class="cls-3" d="M-2651.86,399.89l-1.83-2.41h-5.63l-1.83,2.41,1.61,4.91a13.28,13.28,0,0,0,6.08,0Z" transform="translate(2685.46 -354)"/>
      <path class="cls-3" d="M-2669.54,390.2l2.27-1.71-.84-2.71A13,13,0,0,0-2669.54,390.2Z" transform="translate(2685.46 -354)"/>
      <path class="cls-4" d="M-2669.33,400.45a15.28,15.28,0,0,1-2.53-7.93c0-.14,0-.33,0-.52a15.3,15.3,0,0,1,14.27-15.31V354c-5,2.41-12.33,4.61-19.81,2.22a1.54,1.54,0,0,0-.31-.05,1.13,1.13,0,0,0-.85.42l-1.78,2.23a1.05,1.05,0,0,0-.23.85,1.07,1.07,0,0,0,.46.74c2.49,1.7,6.3,5.55,3.8,12.22a43.59,43.59,0,0,1-4.22,7.81c-.94,1.5-1.93,3.06-2.74,4.63-3,5.72-2.9,12.4.24,17a14.68,14.68,0,0,0,8.33,5.8c.63.18,1.31.34,2,.49l1.1.22c4.74.94,10.06,2,14,5.4v-6.67a14.82,14.82,0,0,1-3.1-.55A15.28,15.28,0,0,1-2669.33,400.45Zm-.34-39.18a1.1,1.1,0,0,1,1.1-1.1h6.58a1.1,1.1,0,0,1,1.1,1.1,1.1,1.1,0,0,1-1.1,1.1h-5.49v4.39h5.49a1.09,1.09,0,0,1,1.1,1.09,1.1,1.1,0,0,1-1.1,1.1h-5.49v4.39a1.09,1.09,0,0,1-1.09,1.1,1.1,1.1,0,0,1-1.1-1.1Zm-8.24,41.53a1.08,1.08,0,0,1-.76.36,1.13,1.13,0,0,1-.79-.28,11.48,11.48,0,0,1-1.77-2c-2.32-3.41-2.7-8.17-1-12.73a1.1,1.1,0,0,1,1.41-.64,1.1,1.1,0,0,1,.65,1.41,11.85,11.85,0,0,0,.77,10.74,9.24,9.24,0,0,0,1.42,1.64A1.09,1.09,0,0,1-2677.91,402.8Z" transform="translate(2685.46 -354)"/>
      <path class="cls-3" d="M-2657.6,382.58l-3.9-2.74a12.93,12.93,0,0,0-5,3.65l1.4,4.53,3,.88,4.53-3.18v-3.14Z" transform="translate(2685.46 -354)"/>
      <path class="cls-3" d="M-2653.94,395.29l1.57-4.76-4.13-2.9-4.13,2.9,1.57,4.76Z" transform="translate(2685.46 -354)"/>
      <path class="cls-3" d="M-2658.83,379l2.33,1.64,2.32-1.64A13.45,13.45,0,0,0-2658.83,379Z" transform="translate(2685.46 -354)"/>
    </g>
  </g>
</svg>
