<svg id="Layer_1" data-name="Layer 1" xmlns="http://www.w3.org/2000/svg" width="60" height="60" viewBox="0 0 60 60">
  <defs>
    <style>
      .cls-1 {
        fill: #fff;
      }
    </style>
  </defs>
  <title>icon03</title>
  <path class="cls-1" d="M-2629.5,357h-9v-3h-36v3h-9a2.83,2.83,0,0,0-3,3v7.2a13.61,13.61,0,0,0,12,13.5v.3a18,18,0,0,0,14.1,17.7l-2.1,6.3h-6.9a2.88,2.88,0,0,0-2.7,2.1l-2.4,6.9h36l-2.4-6.9a2.88,2.88,0,0,0-2.7-2.1h-6.9l-2.1-6.3a18,18,0,0,0,14.1-17.7v-.3a13.61,13.61,0,0,0,12-13.5V360A2.83,2.83,0,0,0-2629.5,357Zm-45,17.7a8,8,0,0,1-6-7.5V363h6Zm24,9.3-6-3.3-6,3.3,1.5-6-4.5-6h6.3l2.7-6,2.7,6h6.3l-4.5,6Zm18-16.8a7.74,7.74,0,0,1-6,7.5V363h6Z" transform="translate(2686.5 -354)"/>
</svg>
