<svg id="Layer_1" data-name="Layer 1" xmlns="http://www.w3.org/2000/svg" xmlns:xlink="http://www.w3.org/1999/xlink" width="59.97" height="60" viewBox="0 0 59.97 60">
  <defs>
    <style>
      .cls-1 {
        fill: none;
      }

      .cls-2 {
        clip-path: url(#clip-path);
      }

      .cls-3 {
        fill: #fff;
      }
    </style>
    <clipPath id="clip-path" transform="translate(2686.51 -353.97)">
      <rect class="cls-1" x="-2686.52" y="353.97" width="60" height="60"/>
    </clipPath>
  </defs>
  <title>icon02</title>
  <g class="cls-2">
    <g>
      <path class="cls-3" d="M-2633.63,384a3.05,3.05,0,0,1-2.89,2.39,1,1,0,0,0-.92.79,1,1,0,0,0,.54,1.08,3,3,0,0,1,1.75,3.32l-.26,1.28a3.18,3.18,0,0,1-3.83,2.34c-.45-.11-.92-.2-1.39-.29l-2-.41-2.7-.54-3.23-.64-3.59-.73-3.85-.77L-2660,391l-3.9-.79-3.73-.75-3.41-.68-2.95-.59-2.36-.48-1.63-.33c-.25,0-.5-.1-.75-.15h0a3.12,3.12,0,0,1-.22,1.94,3.12,3.12,0,0,1-3.43,1.75.92.92,0,0,0-1,.45l-.55,1.19a.92.92,0,0,0,.32,1.08c.06.05,43.95,20.28,44,20.3a.9.9,0,0,0,1-.45l.55-1.19a.92.92,0,0,0-.32-1.08,3.09,3.09,0,0,1-.88-3.73,3.11,3.11,0,0,1,3.42-1.76.92.92,0,0,0,1-.45l.55-1.19a.91.91,0,0,0-.33-1.07,3.13,3.13,0,0,1-.88-3.74,3.14,3.14,0,0,1,3.42-1.76.91.91,0,0,0,1-.45l.55-1.18a.92.92,0,0,0-.32-1.08,3.11,3.11,0,0,1-.89-3.74,3.12,3.12,0,0,1,3.43-1.75.94.94,0,0,0,1-.46l.6-1.31a.76.76,0,0,0-.37-1l-6.56-3Z" transform="translate(2686.51 -353.97)"/>
      <path class="cls-3" d="M-2685.93,383.56c.07,0,47.45,9.54,47.53,9.54a.92.92,0,0,0,.9-.68l.25-1.27a.92.92,0,0,0-.56-1,3.12,3.12,0,0,1-1.73-3.43,3.13,3.13,0,0,1,2.92-2.51.91.91,0,0,0,.9-.67l.19-.94.06-.35a.93.93,0,0,0-.56-1,3.12,3.12,0,0,1-1.73-3.43,3.11,3.11,0,0,1,2.92-2.51.93.93,0,0,0,.9-.67l.25-1.28a.93.93,0,0,0-.57-1A3.11,3.11,0,0,1-2636,369a3.11,3.11,0,0,1,2.92-2.5.93.93,0,0,0,.89-.68l.29-1.42a.74.74,0,0,0-.59-.88s-47.61-9.55-47.66-9.55a.75.75,0,0,0-.74.6l-.29,1.42a.94.94,0,0,0,.57,1,3.1,3.1,0,0,1,1.73,3.43,3.11,3.11,0,0,1-2.92,2.5.93.93,0,0,0-.9.68l-.25,1.28a.92.92,0,0,0,.56,1,3.12,3.12,0,0,1,1.73,3.44,3.12,3.12,0,0,1-2.92,2.5.93.93,0,0,0-.9.68l-.25,1.27a.94.94,0,0,0,.56,1,3.12,3.12,0,0,1,1.73,3.43,3.13,3.13,0,0,1-2.92,2.51.91.91,0,0,0-.89.67l-.26,1.28A.91.91,0,0,0-2685.93,383.56Zm40.59-15.61a1.51,1.51,0,0,1,1.79-1.19,1.53,1.53,0,0,1,1.19,1.79l-2,10-1.24,6.16a1.52,1.52,0,0,1-1.49,1.22,1.53,1.53,0,0,1-.3,0,1.53,1.53,0,0,1-1.19-1.79l1.38-6.87Zm-27.45-5.51a1.51,1.51,0,0,1,1.79-1.19,1.53,1.53,0,0,1,1.19,1.79l-.7,3.45-.78,3.92-.63,3.15-1.13,5.64a1.53,1.53,0,0,1-1.49,1.22l-.3,0-.12,0a1.51,1.51,0,0,1-1.07-1.76l.23-1.14.59-2.94Z" transform="translate(2686.51 -353.97)"/>
    </g>
  </g>
</svg>
