<svg id="Layer_1" data-name="Layer 1" xmlns="http://www.w3.org/2000/svg" xmlns:xlink="http://www.w3.org/1999/xlink" width="57.5" height="60" viewBox="0 0 57.5 60">
  <defs>
    <style>
      .cls-1 {
        fill: none;
      }

      .cls-2 {
        clip-path: url(#clip-path);
      }

      .cls-3 {
        fill: #fff;
      }

      .cls-4 {
        fill: #0dc65c;
      }
    </style>
    <clipPath id="clip-path" transform="translate(2685.25 -354)">
      <rect class="cls-1" x="-2686.5" y="354" width="60" height="60"/>
    </clipPath>
  </defs>
  <title>icon04</title>
  <g class="cls-2">
    <g>
      <path class="cls-3" d="M-2627.77,412.48a1.32,1.32,0,0,1-.25,1,1.25,1.25,0,0,1-1,.47h-55a1.25,1.25,0,0,1-1-.47,1.32,1.32,0,0,1-.25-1l6.73-31,.55-2.5,5.22-24a1.25,1.25,0,0,1,1.23-1h30a1.25,1.25,0,0,1,1.23,1l5.22,24,.55,2.5Z" transform="translate(2685.25 -354)"/>
      <path class="cls-4" d="M-2635,379h-10.47c-2.15-8.22-7.13-10-11-10-5.5,0-9.35,3.58-11,10h-10.48l-.55,2.5h10.65a8.65,8.65,0,0,0,2,5.63,12.26,12.26,0,0,0,9.32,4.37,12.5,12.5,0,0,0,9.43-4.45,8.48,8.48,0,0,0,2-5.55h10.62Zm-21.45-7.5c4.18,0,6.9,2.48,8.38,7.5h-16.78C-2663.5,374.05-2660.7,371.5-2656.5,371.5Zm7.48,14a9.69,9.69,0,0,1-13.62,1.32,9.3,9.3,0,0,1-1.26-1.25,6.15,6.15,0,0,1-1.42-4.05h17.67A5.89,5.89,0,0,1-2649,385.48Z" transform="translate(2685.25 -354)"/>
      <path class="cls-4" d="M-2642.47,414H-2645l-2.5-12.5h-17.95L-2668,414h-2.55l2.8-14a1.24,1.24,0,0,1,1.22-1h20a1.25,1.25,0,0,1,1.23,1Z" transform="translate(2685.25 -354)"/>
      <path class="cls-4" d="M-2649,362.55a1.14,1.14,0,0,1-.28,1,1.15,1.15,0,0,1-.95.45h-12.5a1.15,1.15,0,0,1-.95-.45,1.11,1.11,0,0,1-.27-1l1.42-8.55h2.53l-1.25,7.5h9.55L-2653,354h2.52Z" transform="translate(2685.25 -354)"/>
    </g>
  </g>
</svg>
